# xmcd CD database file generated by LOLA_Freedb v0.9beta0
# 
# Track frame offsets:
#      150
#      10055
#      24832
#      36532
#      49335
#      70497
#      91112
#      107315
#      122055
#      133335
#      148532
#      159472
# 
# Disc length: 2323 seconds
# 
# Revision: 0 
# Processed by: cddbd v1.5.1PL2 Copyright (c) Steve Scherf et al.
# Submitted via: LOLA_Freedb v0.9beta0
# 
DISCID=9e09110c
DTITLE=Frank Corrales - guitaras&Tequilas
DYEAR=2002
DGENRE=
TTITLE0=Frank Corrales - La Malaguena Salerosa
TTITLE1=Guadalajara, Guadalajara
TTITLE2=El Rancho Grande
TTITLE3=Marcha Zacatecas
TTITLE4=Estrellita
TTITLE5=Danzon Juarez
TTITLE6=Cu-Ru-Cu La Paloma
TTITLE7=Las Perlitas
TTITLE8=Copa y Copa
TTITLE9=Valentina
TTITLE10=La Tecolera
TTITLE11=
EXTD=
EXTT0=
EXTT1=
EXTT2=
EXTT3=
EXTT4=
EXTT5=
EXTT6=
EXTT7=
EXTT8=
EXTT9=
EXTT10=
EXTT11=
PLAYORDER=
